<svg xmlns="http://www.w3.org/2000/svg" width="440" height="440" viewBox="0 0 440 440">
  <rect width="440" height="440" fill="#ffffff"/>
  <rect x="28" y="28" width="96" height="96" fill="#111111"/>
  <rect x="316" y="28" width="96" height="96" fill="#111111"/>
  <rect x="28" y="316" width="96" height="96" fill="#111111"/>
  <rect x="148" y="28" width="28" height="28" fill="#111111"/>
  <rect x="204" y="28" width="28" height="28" fill="#111111"/>
  <rect x="260" y="28" width="28" height="28" fill="#111111"/>
  <rect x="148" y="84" width="28" height="28" fill="#111111"/>
  <rect x="260" y="84" width="28" height="28" fill="#111111"/>
  <rect x="28" y="148" width="28" height="28" fill="#111111"/>
  <rect x="84" y="148" width="28" height="28" fill="#111111"/>
  <rect x="148" y="148" width="28" height="28" fill="#111111"/>
  <rect x="204" y="148" width="28" height="28" fill="#111111"/>
  <rect x="260" y="148" width="28" height="28" fill="#111111"/>
  <rect x="316" y="148" width="28" height="28" fill="#111111"/>
  <rect x="372" y="148" width="28" height="28" fill="#111111"/>
  <rect x="28" y="204" width="28" height="28" fill="#111111"/>
  <rect x="148" y="204" width="28" height="28" fill="#111111"/>
  <rect x="204" y="204" width="28" height="28" fill="#111111"/>
  <rect x="260" y="204" width="28" height="28" fill="#111111"/>
  <rect x="372" y="204" width="28" height="28" fill="#111111"/>
  <rect x="84" y="260" width="28" height="28" fill="#111111"/>
  <rect x="148" y="260" width="28" height="28" fill="#111111"/>
  <rect x="260" y="260" width="28" height="28" fill="#111111"/>
  <rect x="316" y="260" width="28" height="28" fill="#111111"/>
  <rect x="372" y="260" width="28" height="28" fill="#111111"/>
  <rect x="148" y="316" width="28" height="28" fill="#111111"/>
  <rect x="204" y="316" width="28" height="28" fill="#111111"/>
  <rect x="316" y="316" width="28" height="28" fill="#111111"/>
  <rect x="372" y="316" width="28" height="28" fill="#111111"/>
  <rect x="148" y="372" width="28" height="28" fill="#111111"/>
  <rect x="260" y="372" width="28" height="28" fill="#111111"/>
  <rect x="316" y="372" width="28" height="28" fill="#111111"/>
  <rect x="372" y="372" width="28" height="28" fill="#111111"/>
  <rect x="180" y="180" width="80" height="80" fill="#5EEAD4"/>
  <text x="220" y="228" text-anchor="middle" font-family="Arial, sans-serif" font-size="22" font-weight="700" fill="#06201B">EOS</text>
</svg>
